#!OML:ASF G:\JayActor3\Patient Classification 1\Patient 1\Session 6\male.ASF
:FULLY-SPECIFIED
:DEGREES
910
root -22.7405 17.0951 12.2365 3.99398 -66.2594 -7.27173
lowerback 2.40818 0.443198 8.35329
upperback -0.0600623 0.820058 0.402121
thorax -1.30478 0.349723 -4.29661
lowerneck 5.76005 -10.3886 -6.23374
upperneck 3.35064 -14.4041 6.54337
head 1.09035 -7.31485 3.1644
rclavicle 9.46091e-015 3.43897e-014
rhumerus -27.9586 19.4081 -93.6863
rradius 64.9488
rwrist -9.90249
rhand -25.2725 -12.004
rfingers 7.12502
rthumb 1.24841 -41.9801
lclavicle 9.46091e-015 3.43897e-014
lhumerus -55.4067 18.6947 73.202
lradius 16.4754
lwrist 12.8414
lhand -16.147 15.7134
lfingers 7.12502
lthumb 10.0583 45.453
rfemur 6.5753 -4.44742 31.4235
rtibia 17.7657
rfoot -5.32788 5.84915
rtoes 16.9971
lfemur -32.8736 14.0479 -13.4344
ltibia 61.0854
lfoot -15.4676 7.08344
ltoes -12.8182
911
root -22.855 17.107 12.2786 4.81936 -67.08 -7.87554
lowerback 2.4358 0.460644 8.3884
upperback -0.0273721 0.845136 0.48482
thorax -1.28363 0.363495 -4.23108
lowerneck 5.80238 -10.4707 -6.296
upperneck 3.19312 -14.5152 6.68305
head 1.05699 -7.37187 3.22604
rclavicle 4.79692e-014 1.61016e-014
rhumerus -28.1151 19.7322 -93.7957
rradius 65.5749
rwrist -9.97937
rhand -25.2027 -12.0562
rfingers 7.12502
rthumb 1.3158 -42.0319
lclavicle 4.79692e-014 1.61016e-014
lhumerus -55.8903 18.4522 74.1583
lradius 16.6452
lwrist 13.0356
lhand -14.5696 15.275
lfingers 7.12502
lthumb 11.5799 44.9351
rfemur 6.97993 -3.96581 31.5646
rtibia 17.3891
rfoot -4.77456 5.95679
rtoes 16.6722
lfemur -33.2602 13.8349 -13.9022
ltibia 59.1502
lfoot -15.9696 6.1279
ltoes -12.1271
912
root -22.9691 17.1187 12.3204 5.73412 -67.9556 -8.54694
lowerback 2.48367 0.496888 8.43295
upperback -0.0183374 0.89873 0.560244
thorax -1.29443 0.389409 -4.17976
lowerneck 5.88342 -10.542 -6.3813
upperneck 3.07073 -14.6173 6.82349
head 1.02991 -7.42568 3.29358
rclavicle -4.92986e-014 -1.78906e-015
rhumerus -28.2842 20.0495 -93.9134
rradius 66.0313
rwrist -9.98637
rhand -25.1268 -12.0888
rfingers 7.12502
rthumb 1.38908 -42.0641
lclavicle -4.92986e-014 -1.78906e-015
lhumerus -56.3312 18.2323 75.0678
lradius 16.807
lwrist 13.2005
lhand -12.9747 14.9538
lfingers 7.12502
lthumb 13.1175 44.5212
rfemur 7.3557 -3.55348 31.6616
rtibia 17.0197
rfoot -4.1391 6.16561
rtoes 16.5181
lfemur -33.5692 13.6523 -14.3437
ltibia 57.0395
lfoot -16.3921 5.15673
ltoes -11.8786
913
root -23.0842 17.1298 12.3614 6.75687 -68.9025 -9.31617
lowerback 2.55142 0.556655 8.47255
upperback -0.0277677 0.986549 0.633975
thorax -1.33114 0.4308 -4.12901
lowerneck 5.99746 -10.5983 -6.48491
upperneck 3.00129 -14.7055 6.9563
head 1.01439 -7.47363 3.36264
rclavicle -1.43995e-014 2.34566e-014
rhumerus -28.4625 20.3691 -94.0374
rradius 66.3206
rwrist -9.95063
rhand -25.0447 -12.1061
rfingers 7.12502
rthumb 1.46841 -42.0808
lclavicle -1.43995e-014 2.34566e-014
lhumerus -56.7393 18.0824 75.8543
lradius 16.9299
lwrist 13.3295
lhand -11.3218 14.6458
lfingers 7.12502
lthumb 14.7105 44.1039
rfemur 7.70578 -3.18456 31.7225
rtibia 16.6796
rfoot -3.43604 6.46217
rtoes 16.6319
lfemur -33.7755 13.4879 -14.7349
ltibia 54.7459
lfoot -16.7469 4.21436
ltoes -12.2962
914
root -23.199 17.1405 12.4029 7.78001 -69.8897 -10.0604
lowerback 2.63259 0.62809 8.47929
upperback -0.0569216 1.09153 0.690734
thorax -1.394 0.479389 -4.07862
lowerneck 6.12196 -10.6428 -6.59744
upperneck 3.00965 -14.7832 7.06439
head 1.02041 -7.51695 3.42352
rclavicle 2.48357e-014 -5.96354e-015
rhumerus -28.6419 20.6907 -94.1614
rradius 66.4464
rwrist -9.88936
rhand -24.9472 -12.0938
rfingers 7.12502
rthumb 1.5626 -42.0678
lclavicle 2.48357e-014 -5.96354e-015
lhumerus -57.1123 17.9984 76.515
lradius 17.0064
lwrist 13.4216
lhand -9.60706 14.2421
lfingers 7.12502
lthumb 16.362 43.572
rfemur 8.00866 -2.95091 31.6682
rtibia 16.3933
rfoot -2.64031 6.90315
rtoes 17.0412
lfemur -33.864 13.2354 -15.1047
ltibia 52.2699
lfoot -17.1178 3.23825
ltoes -12.9941
915
root -23.3146 17.1496 12.4437 8.8782 -70.9162 -10.8819
lowerback 2.73224 0.713059 8.45852
upperback -0.0961474 1.21623 0.747333
thorax -1.47585 0.536978 -4.01437
lowerneck 6.25753 -10.6742 -6.70382
upperneck 3.09901 -14.8478 7.12929
head 1.04584 -7.55402 3.46751
rclavicle 5.44266e-014 1.96797e-014
rhumerus -28.8218 21.0047 -94.2759
rradius 66.4269
rwrist -9.8072
rhand -24.8225 -12.0857
rfingers 7.12502
rthumb 1.68299 -42.0588
lclavicle 5.44266e-014 1.96797e-014
lhumerus -57.4394 17.9739 77.0642
lradius 17.0249
lwrist 13.4284
lhand -7.90773 13.7629
lfingers 7.12502
lthumb 17.9976 42.9502
rfemur 8.27958 -2.7556 31.5705
rtibia 16.1734
rfoot -1.81287 7.4085
rtoes 17.4185
lfemur -33.8157 12.8571 -15.3774
ltibia 49.6355
lfoot -17.5208 2.25738
ltoes -13.9046
916
root -23.4313 17.1557 12.4843 10.0661 -71.9505 -11.8117
lowerback 2.84358 0.801906 8.42307
upperback -0.137191 1.34695 0.805888
thorax -1.56609 0.597327 -3.94073
lowerneck 6.39734 -10.6987 -6.80301
upperneck 3.27587 -14.9076 7.14883
head 1.09435 -7.58901 3.49275
rclavicle 4.20864e-015 -1.03368e-014
rhumerus -28.9978 21.3088 -94.3766
rradius 66.2708
rwrist -9.71963
rhand -24.6801 -12.0805
rfingers 7.12502
rthumb 1.82049 -42.0524
lclavicle 4.20864e-015 -1.03368e-014
lhumerus -57.7192 17.9903 77.5192
lradius 16.9927
lwrist 13.3445
lhand -6.30592 13.2562
lfingers 7.12502
lthumb 19.5382 42.2944
rfemur 8.53047 -2.61463 31.4396
rtibia 16.0283
rfoot -0.969396 7.96689
rtoes 17.9048
lfemur -33.6216 12.2875 -15.5172
ltibia 46.8817
lfoot -17.9714 1.3272
ltoes -14.9097
917
root -23.5495 17.1582 12.5254 11.4015 -72.9631 -12.9173
lowerback 2.95696 0.884219 8.39331
upperback -0.177095 1.4693 0.873135
thorax -1.65788 0.653422 -3.86141
lowerneck 6.53723 -10.7166 -6.88862
upperneck 3.54278 -14.9623 7.11551
head 1.16628 -7.62157 3.49526
rclavicle 5.01772e-014 5.36719e-015
rhumerus -29.1762 21.5882 -94.4615
rradius 66.0041
rwrist -9.62834
rhand -24.5025 -12.0835
rfingers 7.12502
rthumb 1.99209 -42.054
lclavicle 5.01772e-014 5.36719e-015
lhumerus -57.9534 17.793 78.1947
lradius 17.095
lwrist 13.5338
lhand -4.9483 12.9562
lfingers 7.12502
lthumb 20.8431 41.8566
rfemur 8.77637 -2.53471 31.2977
rtibia 15.9415
rfoot -0.117314 8.56765
rtoes 18.5307
lfemur -33.2952 11.4804 -15.4867
ltibia 44.07
lfoot -18.4782 0.521198
ltoes -15.7927
918
root -23.6695 17.1561 12.5674 12.9625 -73.9546 -14.2791
lowerback 3.06249 0.962924 8.38998
upperback -0.211616 1.58661 0.949864
thorax -1.7403 0.707248 -3.78697
lowerneck 6.68021 -10.7333 -6.97745
upperneck 3.88293 -15.0205 7.05816
head 1.26037 -7.65669 3.48802
rclavicle -2.71947e-014 3.73715e-014
rhumerus -29.3528 21.8261 -94.5281
rradius 65.6361
rwrist -9.53912
rhand -24.2833 -12.1005
rfingers 7.12502
rthumb 2.20379 -42.0689
lclavicle -2.71947e-014 3.73715e-014
lhumerus -58.1429 17.4345 79.0235
lradius 17.297
lwrist 13.9043
lhand -3.90722 12.9043
lfingers 7.12502
lthumb 21.843 41.6915
rfemur 9.03101 -2.511 31.1579
rtibia 15.8939
rfoot 0.743901 9.22174
rtoes 19.1931
lfemur -32.8637 10.4417 -15.2646
ltibia 41.2774
lfoot -19.0588 -0.111149
ltoes -16.381
919
root -23.7924 17.1494 12.6111 14.8551 -74.9234 -16.0006
lowerback 3.14252 1.03749 8.4363
upperback -0.241557 1.69729 1.03613
thorax -1.80372 0.758044 -3.72971
lowerneck 6.83034 -10.7487 -7.06272
upperneck 4.28682 -15.0815 6.98074
head 1.37266 -7.69417 3.47185
rclavicle 3.41451e-014 -2.40529e-014
rhumerus -29.528 22.0267 -94.5842
rradius 65.1736
rwrist -9.46949
rhand -24.0239 -12.1251
rfingers 7.12502
rthumb 2.4543 -42.0907
lclavicle 3.41451e-014 -2.40529e-014
lhumerus -58.316 16.9789 79.9081
lradius 17.5752
lwrist 14.3912
lhand -3.19687 13.0895
lfingers 7.12502
lthumb 22.525 41.7957
rfemur 9.31129 -2.55978 31.0242
rtibia 15.8554
rfoot 1.63104 9.95223
rtoes 19.8677
lfemur -32.3665 9.21248 -14.8475
ltibia 38.5948
lfoot -19.6993 -0.552508
ltoes -16.6861
